<svg width="24" height="24" viewBox="0 0 24 24" fill="none" xmlns="http://www.w3.org/2000/svg">
<g clip-path="url(#clip0)">
<path d="M23.4706 5.74358C23.3329 5.23484 23.0644 4.77104 22.6917 4.39836C22.319 4.02568 21.8552 3.75712 21.3464 3.61942C19.485 3.11163 11.9877 3.11163 11.9877 3.11163C11.9877 3.11163 4.49192 3.12689 2.62953 3.63517C2.12072 3.77273 1.65685 4.04124 1.28415 4.41394C0.911447 4.78664 0.642935 5.25052 0.505374 5.75933C-0.0580174 9.06833 -0.276486 14.1108 0.520628 17.2879C0.658413 17.7966 0.927001 18.2604 1.29967 18.6331C1.67233 19.0057 2.13609 19.2743 2.64479 19.4121C4.50718 19.9199 12.0059 19.9199 12.0059 19.9199C12.0059 19.9199 19.5018 19.9199 21.3642 19.4121C21.8729 19.2744 22.3367 19.0059 22.7094 18.6332C23.0821 18.2605 23.3506 17.7967 23.4883 17.2879C24.0802 13.974 24.2633 8.9345 23.4706 5.74358Z" fill="#FF0000"/>
<path d="M9.60327 15.1175L15.8217 11.5158L9.60327 7.914V15.1175Z" fill="white"/>
</g>
<defs>
<clipPath id="clip0">
<rect width="24" height="24" fill="white"/>
</clipPath>
</defs>
</svg>
